Patient5_TMGait_0pt45_1_right_03_EMG.mot
version=1
nRows=22
nColumns=33
inDegrees=no
endheader
time	1LAddLong	2LGlutMax	3LGlutMed	4LIliopsoas	5LSemiMemb	6LBicFemLong	7LRecFem	8LTensFascLat	9LVastMed	10LVasLat	11LGasMed	12lGasLat	13LTibAnt	14LPeroneusLong	15LSol	16LTibPost	17RAddLong	18RGlutMax	19RGlutMed	20RIliopsoas	21RSemiMemb	22RBicFemLong	23RRecFem	24RTensFascLat	25RVastMed	26RVasLat	27RGasMed	28RGasLat	29RTibAnt	30RPeroneusLong	31RSol	32RTibPost
4.47	0.19989	0.011749	-0.034485	0.009918	0.10864	-0.016937	0.000458	-0.019379	0.014648	0.009613	0.041962	-0.00351	-0.012817	-0.016479	0.016327	-0.056763	0.004272	-0.001526	-0.047455	0.028076	-0.029907	0.005951	-0.004883	0.073395	0.034637	-0.005188	0.001678	-0.021515	-0.000763	-0.034485	-0.000763	-0.011597
4.471	0.24002	0.002747	0.046692	0.029449	-0.046387	-0.020905	-0.007324	0.062408	0.012817	0.013275	0.021362	-0.018463	0.019379	-0.013733	0.027771	0.062866	0.003662	0.00351	0.16159	0.020294	-0.045471	0.010529	-0.011139	0.016022	0.035706	0.001526	0.001221	-0.027771	0.011139	-0.015869	0.006561	-0.007324
4.472	0.2298	-0.010681	0.26794	-0.038147	-0.045624	-0.027008	0.003967	0.31769	0.014801	0.00946	0.13351	-0.024567	0.032043	-0.035706	0.032501	-0.033264	0.001526	-0.002441	0.14969	0.11261	-0.049591	-0.01236	-0.013275	-0.019836	0.032654	0.001526	0.000763	-0.012665	0.031128	0.00824	0.003815	-0.010223
4.473	0.16007	-0.014954	0.21912	-0.036011	-0.11505	0.010834	0.011444	0.17746	0.015869	0.001831	0.12253	-0.018311	0.016022	-0.091095	-0.009918	0.041046	0.008545	-0.003815	0.14313	0	-0.032196	-0.032349	-0.013885	-0.030212	0.034332	-0.008392	-0.001831	-0.001373	0.029449	0.010529	0.001984	-0.001984
4.474	0.11612	-0.012054	0.041046	-0.019226	-0.11505	0.037689	0.024109	-0.075073	0.012054	-0.004578	0.034943	0.00473	-0.007172	-0.1001	-0.012054	-0.060883	0.009613	-0.002289	0.10742	-0.025482	-0.029602	-0.055237	-0.01236	-0.058594	0.039215	-0.012665	-0.000916	-0.00061	0.009613	0.011749	0.00061	-0.012817
4.475	0.078278	-0.008087	-0.050812	-0.024567	-0.071259	0.033569	0.023193	-0.10407	-0.001678	-0.002899	-0.11307	0.000763	-0.028839	-0.090637	0.00412	-0.002136	0.007324	-0.00351	0.1181	-0.002899	0.016632	-0.035248	-0.007782	-0.024872	0.040131	0.002136	0.00824	-0.005646	0	-0.003815	-0.008698	-0.005188
4.476	0.097504	-0.001984	-0.087738	-0.014954	-0.036469	0.024109	0.027771	-0.056305	0.002594	-0.009308	-0.035553	0.002899	-0.003815	0.006714	0.022125	0.003815	0.009308	-0.001526	0.069427	-0.02121	0.027313	-0.028687	-0.018311	0.10559	0.027161	-0.003052	0.011902	-0.009613	-0.017548	-0.009155	0.00473	-0.013733
4.477	0.18097	0.005188	0.013275	-0.007172	-0.001831	0.01709	0.018311	0.11551	0.001221	-0.036926	0.022736	-0.000763	0.052643	0.14969	0.026703	0.015106	0.012207	-0.002899	0.008087	-0.018158	0.050049	-0.017395	-0.014343	0.24567	0.027618	0.000305	0.002441	-0.011139	-0.030975	-0.008087	0.015411	-0.00824
4.478	0.16434	-0.007172	0.070953	-0.012512	-0.008392	0.009918	-0.001221	0.12726	0.010071	-0.045471	0.014038	0.037994	0.012512	0.29709	0.009918	0.18951	0.009308	-0.001831	0.013885	0.099335	0.075226	-0.014954	-0.014648	0.23895	0.035553	0.005798	0.012054	-0.011292	-0.031433	-0.001831	0.00946	-0.015564
4.479	0.062256	0.003815	0.027618	-0.0177	0.015717	0.016479	-0.004272	0.020447	0.009308	-0.038757	0.041809	0.008392	-0.007782	0.13504	-0.001678	-0.07431	0.008545	-0.001678	0.0177	0.085602	0.087891	-0.014496	-0.018921	0.17624	0.031891	-0.001831	0.010834	-0.005341	-0.019836	0.000763	0.013275	-0.005493
4.48	0.011749	0.005341	0.011292	-0.000305	0.037689	0.070343	-0.009003	0.007782	0.007172	-0.012512	0.02121	-0.019531	-0.00351	0.021515	0.022736	0.026245	0.014954	-0.003052	-0.020294	-0.11063	0.03006	-0.015259	-0.015869	0.18143	0.02655	0.001831	-0.030823	0.004578	-0.028076	-0.001221	0.020599	-0.00473
4.481	-0.15869	0.007782	-0.028381	-0.007324	0.058441	0.086365	-0.010834	0.005798	-0.006104	0.00412	0.034637	-0.009613	0.016022	-0.050354	0.002899	-0.028229	0.016937	-0.006866	0.015564	0.054626	0.00473	-0.014038	-0.015259	0.10803	0.025635	0.002136	-0.027771	0.00473	-0.018921	-0.006104	0.007935	-0.004883
4.482	-0.43915	0.016327	0.008698	0.000153	0.092316	0.093231	-0.016937	-0.027161	-0.01297	0.009918	0.018158	-0.015106	-0.001221	-0.081177	-0.019836	0.11627	0.017853	-0.003815	0.043182	-0.074768	-0.007629	-0.010071	-0.014496	0.072174	0.018463	0.01358	-0.00946	-0.012665	0.00351	-0.016937	0.003662	-0.005188
4.483	-0.20157	0.020294	-0.024567	0.002289	0.13992	0.076141	-0.020294	-0.13916	-0.007782	0.02655	-0.03479	-0.004425	-0.005188	-0.078278	-0.023804	-0.061035	0.012512	-0.009613	0.040588	0.040894	-0.027008	-0.015106	-0.013123	0.017242	0.023651	0.004425	-0.001526	-0.019073	0.020905	-0.031433	-0.002899	-0.007477
4.484	-0.006256	0.019379	0.02121	0.009766	0.11475	0.054474	-0.017853	-0.083313	-0.006409	0.041809	-0.057526	-0.022125	-0.005798	-0.069275	-0.001526	-0.003052	0.009308	-0.006409	-0.002289	-0.049286	-0.048218	-0.006104	-0.014343	0.034637	0.011292	0.001068	-0.00061	-0.016327	0.014496	-0.026245	-0.015564	-0.010681
4.485	0.1503	0.014038	0.034027	-0.000153	0.053864	0.024567	-0.018158	-0.061493	0.002441	0.019226	-0.019531	-0.018005	-0.003052	-0.045929	-0.016479	0.05188	0.007172	-0.002899	-0.018768	0.12482	-0.017395	-0.007629	-0.009308	0.021362	0.015564	0.003815	-0.003052	0.003967	0.003204	-0.019226	-0.002747	-0.014343
4.486	0.34576	0.007782	-0.002747	-0.001068	0.014038	0.001373	-0.011292	-0.16495	0.006409	-0.014038	-0.055389	-0.009155	-0.016937	-0.006866	-0.022278	-0.031891	0.004578	-0.000916	-0.007477	-0.11169	-0.027618	-0.012817	-0.004272	0.001068	0.022278	0.004425	-0.006561	0.00412	-0.005035	-0.011597	0.010223	-0.010071
4.487	0.20706	-0.000916	-0.065918	-0.014343	-0.1358	0.010376	-0.014648	-0.028992	0.007324	-0.030518	-0.10834	-0.020294	-0.006866	0.023346	-0.023651	-0.061798	0.005341	-0.009766	0.005951	-0.041351	-0.006714	-0.012054	-0.000916	-0.014191	0.024109	0.003357	-0.00061	0.009155	-0.009766	-0.018311	0.011139	-0.007935
4.488	-0.31296	-0.007935	-0.079041	-0.018616	-0.23422	0.003967	-0.0177	-0.058441	0.00061	-0.035553	-0.34454	-0.007019	0.007019	0.036316	-0.039368	0.032196	-0.000458	-0.001526	-0.005951	-0.11322	-0.010986	-0.006561	-0.001831	-0.036316	0.023651	-0.000916	-0.003967	0.009003	-0.014954	-0.018311	0.029297	-0.009308
4.489	-0.21271	0.009155	-0.091248	0.012207	0.000916	0.010681	-0.007782	-0.063019	0.002899	-0.021515	-0.14771	0.018616	0.000305	0.02243	-0.032654	0.041656	0.00351	-0.006714	0.025787	-0.025635	-0.023651	-0.007172	0.000458	-0.076141	0.013885	0.006256	-0.001373	0.006561	-0.014038	-0.017548	0.048218	-0.00885
4.49	-0.13901	0.011749	-0.092621	0.009155	0.078583	-0.000153	0.002899	-0.018005	0.009613	-0.006561	-0.079803	0.013123	0.002899	-0.012512	-0.012817	0.078583	-0.002594	-0.008698	0.03418	-0.015869	0.012054	0.000916	-0.001373	-0.11078	0.016937	0.008545	-0.002594	-0.000763	-0.007782	-0.018311	0.015869	-0.010834
4.491	-0.053406	0.010529	-0.092621	-0.005646	0.031433	-0.040436	-0.002747	-0.02243	0.014191	-0.00412	0.16647	0.021515	0.014801	0.019836	0.007629	-0.009308	0.000916	-0.001984	0.070648	-0.031433	0.017242	-0.000153	-0.005951	-0.10941	0.014954	0.006409	-0.006104	0.011444	-0.005035	-0.018463	-0.001221	-0.002441
